HIERARCHY
ROOT Hips
{
  OFFSET 279.157 85.6768 304.565
  CHANNELS 6 Xposition Yposition Zposition Zrotation Xrotation Yrotation
  JOINT LeftUpLeg
  {
    OFFSET 8.64259 1.95398 -2.38835
    CHANNELS 3 Zrotation Xrotation Yrotation
    JOINT LeftLeg
    {
      OFFSET 43.7702 0 0
      CHANNELS 3 Zrotation Xrotation Yrotation
      JOINT LeftFoot
      {
        OFFSET 40.6238 0 0
        CHANNELS 3 Zrotation Xrotation Yrotation
        JOINT LeftToeBase
        {
          OFFSET 12.7242 0 0
          CHANNELS 3 Zrotation Xrotation Yrotation
          End Site
          {
            OFFSET 0 0 0
          }
        }
      }
    }
  }
  JOINT RightUpLeg
  {
    OFFSET -8.2249 1.95398 -2.59336
    CHANNELS 3 Zrotation Xrotation Yrotation
    JOINT RightLeg
    {
      OFFSET 43.5653 0 0
      CHANNELS 3 Zrotation Xrotation Yrotation
      JOINT RightFoot
      {
        OFFSET 40.6238 0 0
        CHANNELS 3 Zrotation Xrotation Yrotation
        JOINT RightToeBase
        {
          OFFSET 12.7242 0 0
          CHANNELS 3 Zrotation Xrotation Yrotation
          End Site
          {
            OFFSET 0 0 0
          }
        }
      }
    }
  }
  JOINT Spine
  {
    OFFSET 0.165834 0.87714 6.61349
    CHANNELS 3 Zrotation Xrotation Yrotation
    JOINT Spine1
    {
      OFFSET 7.38963 1.71661e-005 0
      CHANNELS 3 Zrotation Xrotation Yrotation
      JOINT Spine2
      {
        OFFSET 11.9445 1.14441e-005 0
        CHANNELS 3 Zrotation Xrotation Yrotation
        JOINT Spine3
        {
          OFFSET 14.7254 4.19617e-005 0
          CHANNELS 3 Zrotation Xrotation Yrotation
          JOINT Spine4
          {
            OFFSET 10.9679 0 0
            CHANNELS 3 Zrotation Xrotation Yrotation
            JOINT RightShoulder
            {
              OFFSET 2.46616 -1.6653 3.69651
              CHANNELS 3 Zrotation Xrotation Yrotation
              JOINT RightArm
              {
                OFFSET 13.0012 0 0
                CHANNELS 3 Zrotation Xrotation Yrotation
                JOINT RightForeArm
                {
                  OFFSET 28.7848 1.52588e-005 0
                  CHANNELS 3 Zrotation Xrotation Yrotation
                  JOINT RightHand
                  {
                    OFFSET 26.5688 1.52588e-005 0
                    CHANNELS 3 Zrotation Xrotation Yrotation
                    End Site
                    {
                      OFFSET 0 0 0
                    }
                  }
                }
              }
            }
            JOINT LeftShoulder
            {
              OFFSET 2.38034 -1.29275 -3.7523
              CHANNELS 3 Zrotation Xrotation Yrotation
              JOINT LeftArm
              {
                OFFSET 16.3182 6.10351e-005 0
                CHANNELS 3 Zrotation Xrotation Yrotation
                JOINT LeftForeArm
                {
                  OFFSET 27.0901 0 0
                  CHANNELS 3 Zrotation Xrotation Yrotation
                  JOINT LeftHand
                  {
                    OFFSET 24.5451 1.52588e-005 0
                    CHANNELS 3 Zrotation Xrotation Yrotation
                    End Site
                    {
                      OFFSET 0 0 0
                    }
                  }
                }
              }
            }
            JOINT Neck
            {
              OFFSET 5.0226 -0.0266342 0
              CHANNELS 3 Zrotation Xrotation Yrotation
              JOINT Head
              {
                OFFSET 6.69364 2.86102e-005 0
                CHANNELS 3 Zrotation Xrotation Yrotation
                End Site
                {
                  OFFSET 0 0 0
                }
              }
            }
          }
        }
      }
    }
  }
}
MOTION
Frames:	7
Frame Time:	0.0416667
6.02305 75.5254 -26.7699 82.3494 46.1004 95.6361 -161.216 56.6279 80.6828 -91.6109 10.8474 1.37717 91.2508 22.5535 3.05769 32.8394 1.60024 2.96175 170.33 42.6829 100.148 -93.126 0.210597 -1.59528 98.0545 -24.6782 -1.75925 39.3855 -3.66808 2.40575 0.331865 10.5475 -89.7114 5.77658 0.783944 0.546178 -5.89424 0.807207 0.51114 -28.4296 0.583553 0.75654 -8.417 0.583562 0.756528 88.4561 -17.6753 -116.241 4.32848 17.5483 -45.9725 -27.1955 -29.8382 -55.1536 -51.8494 -0.465441 -10.084 -93.0827 -31.4963 68.1121 -6.51106 -9.2866 -77.6908 35.106 47.5041 -44.1758 41.5907 2.44696 1.91096 26.0831 -0.229648 -2.10782 -3.16586 0.534349 1.31431 
11.8428 78.2216 -32.7148 78.6641 46.9542 97.5796 -163.754 48.7458 83.355 -86.4829 9.01435 0.8334 97.751 25.8411 -0.925659 35.4593 2.83704 4.37136 171.18 40.6578 99.1582 -91.7993 -2.65282 -1.72655 84.8072 -18.2711 -7.97737 47.9627 -6.10205 7.07068 0.412543 10.1871 -89.6113 6.49575 0.989202 0.729582 -5.175 1.02038 0.685323 -27.7103 0.724224 0.993141 -7.69769 0.724234 0.993147 88.9008 -16.8215 -115.728 7.88439 22.9112 -43.3845 -28.7333 -27.8837 -60.8797 -53.9649 -0.96145 -8.63784 -92.6123 -31.685 69.0415 -5.56568 -10.8653 -80.7409 42.876 46.1059 -53.3674 40.2346 1.39962 -0.520443 26.1242 -1.20392 -2.91715 -2.24318 -0.091325 1.37905 
17.9509 81.1378 -38.9036 77.2444 47.5377 98.328 -165.823 39.3865 86.0702 -79.6018 9.25197 0.181424 98.5413 27.1407 -0.394016 39.457 4.93893 5.8169 173.386 40.7368 98.0718 -92.8144 -4.71986 -2.15582 69.4576 -7.0996 -5.43376 39.8216 -4.03301 10.0109 0.299301 10.0057 -89.537 6.8585 0.795901 0.879609 -4.81247 0.833856 0.843722 -27.3462 0.494765 1.07813 -7.33353 0.494764 1.07813 88.3807 -18.0715 -116.167 9.25086 24.0084 -37.7167 -28.8843 -23.1128 -67.3878 -54.0417 0.702161 -11.7088 -91.9701 -33.4781 70.8933 -0.363364 -13.0778 -81.3311 43.8669 40.8768 -58.1964 41.7822 0.939272 -1.85505 27.4191 -1.32657 -3.81902 -2.63558 0.16823 0.696414 
24.2301 83.8938 -45.3547 75.3745 47.9583 100.404 -167.152 31.3601 89.0818 -72.3837 11.2622 -0.271137 94.4995 25.8536 1.93837 45.5352 8.43508 5.69322 174.887 42.1796 98.7288 -94.2565 -9.56987 -2.54499 66.1404 -4.78304 -4.99572 20.5391 0.74282 10.3809 0.0930128 9.72748 -89.5212 7.41627 0.393111 0.925044 -4.25492 0.433442 0.906841 -26.7875 0.0969192 1.00041 -6.77485 0.0969213 1.0004 86.581 -23.0991 -117.123 7.77034 18.4235 -25.849 -37.4408 -17.7524 -80.9567 -51.9685 -0.238079 -10.5889 -91.3153 -32.5634 71.753 3.50023 -15.3253 -81.038 47.6607 36.6758 -64.2213 40.8332 1.12652 -1.31042 26.8925 -1.85331 -7.67625 -1.58949 1.0835 2.33094 
30.9544 86.321 -51.7794 71.5732 48.759 103.372 -168.232 23.8351 91.1826 -63.1752 13.4258 -0.696178 89.9334 23.6475 3.11609 48.9741 10.3905 6.82532 174.047 44.8904 100.214 -91.0324 -4.53472 -2.05279 73.9719 -9.08105 -5.79345 26.4766 -0.550877 9.02591 -0.245317 9.27067 -89.576 8.33293 -0.302721 0.856531 -3.33826 -0.264733 0.86902 -25.872 -0.546153 0.725959 -5.85932 -0.546149 0.725953 86.2248 -27.6125 -115.352 10.3232 4.55244 -12.7906 -40.6531 -9.02189 -87.2834 -46.0308 0.571885 -13.2431 -90.2055 -30.649 73.1457 3.76997 -16.3525 -82.4059 52.9347 33.1134 -70.2368 41.7444 1.08404 -1.47179 27.0809 -1.80138 -8.69661 -2.1163 1.51947 2.83687 
37.265 88.6477 -58.8677 70.6987 48.049 106.08 -168.252 14.7215 94.6572 -52.2811 14.4725 -0.897493 82.7651 19.1754 4.64598 54.0562 13.3309 6.58779 173.86 48.3433 102.111 -84.1722 -2.59861 -1.308 78.3591 -10.8661 -4.64098 26.0999 -0.186059 7.19683 -0.368508 9.00775 -89.9736 8.86078 -0.723259 0.099451 -2.80995 -0.718201 0.131183 -25.3469 -0.719714 -0.122535 -5.33427 -0.719722 -0.122532 87.8123 -27.1411 -112.392 21.1357 -12.3512 1.96897 -42.7891 -4.58772 -86.7319 -46.1983 0.764519 -13.6176 -89.2521 -29.2161 74.4793 2.75711 -16.8864 -83.8222 54.7671 29.1333 -72.9728 39.0591 -0.028542 -4.19808 28.9014 -0.429841 -5.95748 -4.00779 1.88171 1.17127 
43.8528 90.8243 -66.4827 71.9259 46.845 106.895 -167.854 4.64351 97.5797 -40.2925 17.3946 -0.68269 71.2157 10.9155 5.52836 63.3699 18.2364 5.32433 174.393 50.985 102.607 -73.7049 -5.38856 -0.48982 81.0219 -12.4604 -5.0238 24.9405 -0.0725713 8.50297 -0.425508 8.91351 -90.4417 9.04157 -1.04599 -0.800814 -2.62918 -1.08019 -0.754009 -25.1643 -0.756957 -1.07814 -5.15162 -0.756955 -1.07815 88.1492 -25.086 -112.708 37.0268 -17.1176 19.1647 -39.1714 -6.97355 -80.3228 -48.6654 1.86991 -15.2237 -89.4528 -30.0156 74.3623 2.60344 -16.0846 -83.7005 54.3655 28.0244 -73.9498 39.8702 0.744729 -2.20281 31.7215 1.9265 -1.96377 -7.02598 2.66195 -0.255668 
